# xmcd
#
# Track frame offsets:
#	150
#	20722
#	40519
#	53600
#	75212
#	96436
#	110330
#	132932
#	167140
#	194182
#	223901
#	245956
#	268489
#
# Disc length: 3747 seconds
#
# Revision: 0
# Processed by: cddbd v1.4PL0 Copyright (c) Steve Scherf et al.
# Submitted via: dBpowerAMP V4.0
#
DISCID=c20ea10d
DTITLE=Sos Blues - Live
DYEAR=1900
DGENRE=Blues
TTITLE0=Kiss
TTITLE1=Sad to Be Alone
TTITLE2=La Grange
TTITLE3=Mary Had a Little Lamb
TTITLE4=Look at Little Sister
TTITLE5=Duo Harmos
TTITLE6=Honky Tonk Woman
TTITLE7=Stairway to Heaven
TTITLE8=Knocking at Heaven's door
TTITLE9=Get Back
TTITLE10=Old Love
TTITLE11=Don't you mess with me
TTITLE12=Life by the drop
EXTD=
EXTT0=
EXTT1=
EXTT2=
EXTT3=
EXTT4=
EXTT5=
EXTT6=
EXTT7=
EXTT8=
EXTT9=
EXTT10=
EXTT11=
EXTT12=
PLAYORDER=
